<svg width="74" height="34" viewBox="0 0 74 34" fill="none" xmlns="http://www.w3.org/2000/svg">
<path d="M13.1097 -3.13134e-05C16.5869 -3.13134e-05 19.6254 0.704793 22.2255 2.11444C24.8568 3.49276 26.8773 5.43495 28.2869 7.94099C29.6966 10.447 30.4014 13.3133 30.4014 16.5398C30.4014 19.735 29.6809 22.5857 28.24 25.0917C26.8303 27.5978 24.8098 29.5713 22.1785 31.0122C19.5784 32.4219 16.5555 33.1267 13.1097 33.1267H-3.82503e-06V-3.13134e-05H13.1097ZM12.4049 24.9977C15.0989 24.9977 17.2134 24.2616 18.7483 22.7893C20.2833 21.317 21.0507 19.2338 21.0507 16.5398C21.0507 13.8145 20.2833 11.7157 18.7483 10.2434C17.2134 8.73979 15.0989 7.98798 12.4049 7.98798H9.2097V24.9977H12.4049ZM73.2243 -3.13134e-05V33.1267H64.0146V14.8483L57.7651 33.1267H50.059L43.7626 14.7073V33.1267H34.5529V-3.13134e-05H45.6891L54.0061 21.5206L62.135 -3.13134e-05H73.2243Z" fill="#1D1F33"/>
</svg>
