<svg width="129" height="61" viewBox="0 0 129 61" fill="none" xmlns="http://www.w3.org/2000/svg">
<path d="M13.524 16.539C16.5114 16.539 19.122 17.1446 21.3558 18.3557C23.6166 19.5399 25.3525 21.2085 26.5636 23.3616C27.7747 25.5146 28.3803 27.9772 28.3803 30.7493C28.3803 33.4945 27.7612 35.9436 26.5232 38.0967C25.3121 40.2498 23.5762 41.9453 21.3155 43.1833C19.0817 44.3944 16.4845 45 13.524 45H2.26073V16.539H13.524ZM12.9185 38.016C15.233 38.016 17.0497 37.3835 18.3684 36.1186C19.6872 34.8536 20.3466 33.0639 20.3466 30.7493C20.3466 28.4078 19.6872 26.6046 18.3684 25.3397C17.0497 24.0479 15.233 23.4019 12.9185 23.4019H10.1733V38.016H12.9185ZM50.7999 16.539V35.3919C50.7999 38.5946 49.9252 41.0437 48.1759 42.7393C46.4534 44.4348 44.0716 45.2826 41.0303 45.2826C37.8007 45.2826 35.217 44.381 33.2792 42.5778C31.3684 40.7746 30.413 38.1774 30.413 34.7863H38.2448C38.2717 37.0202 39.0926 38.1371 40.7074 38.1371C42.1607 38.1371 42.8874 37.222 42.8874 35.3919V16.539H50.7999ZM62.8296 50.5307H54.8767V11.8157H62.8296V50.5307ZM74.026 50.5307H66.0731V11.8157H74.026V50.5307ZM111.14 16.539V45H103.228V29.296L97.8583 45H91.2376L85.828 29.1749V45H77.9155V16.539H87.4832L94.6287 35.0286L101.613 16.539H111.14Z" fill="white"/>
<path d="M114 45.5V17L127.5 30.5L114 45.5Z" fill="#18C9D9" stroke="#18C9D9"/>
</svg>
